<svg id="Capa_1" enable-background="new 0 0 512.01 512.01" height="512" viewBox="0 0 512.01 512.01" width="512" xmlns="http://www.w3.org/2000/svg"><g><path d="m447.183 66.584h-6.075c11.58-18.853 7.304-44.164-11.281-57.953-20.025-14.856-48.482-10.074-62.457 10.81l-31.546 47.144h-270.997c-22.275 0-40.397 18.122-40.397 40.397v258.274c0 22.275 18.122 40.397 40.397 40.397h156.914l-11.856 49.797h-25.589c-16.677 0-30.245 13.567-30.245 30.244v6.315h-31.545c-5.523 0-10 4.478-10 10s4.477 10 10 10h266.999c5.523 0 10-4.478 10-10s-4.477-10-10-10h-31.545v-6.315c0-16.677-13.568-30.244-30.245-30.244h-25.589l-11.856-49.797h156.914c22.275 0 40.397-18.122 40.397-40.397v-56.83-201.445c0-22.275-18.122-40.397-40.398-40.397zm-143.282 175.799c-15.635 10.945-44.926-3.932-72.898 10.994-6.825-35.455-2.522-68.8 33.003-76.16 4.591-.957 9.534-1.39 13.742-1.306 12.024 8.921 24.186 17.944 36.176 26.841 5.249 15.268 3.279 30.32-10.023 39.631zm10.078-107.188 28.307 21.002-21.769 26.541c-8.962-6.649-16.666-12.365-25.628-19.015 1.861-2.781 17.389-25.987 19.09-28.528zm70.014-104.631c7.574-11.321 23.021-13.955 33.917-5.87 10.9 8.086 12.852 23.632 4.215 34.163-15.325 18.683-51.759 63.104-67.142 81.859l-29.87-22.162zm-46.034 455.13v6.315h-163.908v-6.315c0-5.648 4.596-10.244 10.245-10.244h143.418c5.649 0 10.245 4.596 10.245 10.244zm-56.393-30.244h-51.122l11.856-49.797h27.41zm186.015-90.194c0 11.247-9.15 20.397-20.397 20.397-15.874 0-364.508 0-382.356 0-11.247 0-20.397-9.15-20.397-20.397v-46.83h28.576c5.523 0 10-4.478 10-10s-4.477-10-10-10h-28.578v-191.445c0-11.247 9.15-20.397 20.397-20.397h257.615c-9.58 14.317-37.529 56.085-46.382 69.314-19.597.177-39.162 7.004-51.97 21.956-17.429 20.345-20.491 52.313-9.101 95.015 1.947 7.302 11.058 9.918 16.571 4.652 25.857-24.707 58.061 2.243 86.9-21.099 17.604-14.25 21.77-36.904 15.132-58.088 8.973-10.94 82.664-100.784 91.658-111.75h21.933c11.247 0 20.397 9.15 20.397 20.397v191.444h-314.574c-5.523 0-10 4.478-10 10s4.477 10 10 10h314.576z"/><path d="m111.075 298.619c-4.814.984-8.04 5.145-8.04 9.811 0 6.255 5.719 11.045 11.95 9.8 5.537-1.124 8.91-6.46 7.85-11.76-1.113-5.47-6.419-8.926-11.76-7.851z"/></g></svg>